<svg width="200" height="164" version="1.1" xmlns="http://www.w3.org/2000/svg" desc="Created with imagetracer.js version 1.2.6" ><path fill="rgb(0,0,0)" stroke="rgb(0,0,0)" stroke-width="1" opacity="0" d="M 0 0 L 89 0.5 Q 69.7 3.7 60 16.5 Q 53.7 23.2 53 35.5 L 58.5 39 L 79.5 41 L 83 38.5 L 84 32.5 L 90.5 26 Q 95.2 22.7 104.5 24 L 112 28.5 L 115 34.5 L 115 47 L 104.5 47 L 81.5 51 Q 69 54 61 61.5 Q 61.8 63.8 59.5 63 Q 53 69.5 50 79.5 L 50 100.5 L 57 115 L 67.5 122 L 74.5 124 L 85.5 125 L 102.5 122 L 120.5 110 L 130.5 122 L 136.5 124 L 157 107.5 L 157 102.5 Q 150.3 97.2 148 87.5 L 148 33.5 Q 145.5 32 147 26.5 Q 144.6 13.9 135.5 8 Q 128 2 116 0.5 L 200 0 L 199.5 122 Q 192.6 116.9 178.5 119 L 167.5 122 L 162 125 L 161 129 L 184.5 128 L 189 130.5 L 189 137.5 L 183 152.5 L 183 156 L 186.5 156 L 193 149.5 L 199.5 134 L 200 164 L 114 163.5 L 122.5 163 L 136.5 160 L 155.5 154 L 170.5 147 L 182 139.5 L 183 135.5 Q 182.3 132.3 177.5 133 L 169.5 137 L 136.5 146 L 123.5 147 L 122.5 148 L 96.5 149 L 95.5 148 L 72.5 147 L 49.5 142 L 18.5 131 L 4.5 123 L 0 123 L 0 0 Z " /><path fill="rgb(0,0,0)" stroke="rgb(0,0,0)" stroke-width="1" opacity="0" d="M 108.5 65 L 115 65 L 115 81.5 Q 112.6 93.1 104.5 99 Q 100.5 102 92.5 101 L 86 96.5 L 84 93.5 L 84 79.5 L 91.5 70 L 98.5 67 L 108.5 65 Z " /><path fill="rgb(0,0,0)" stroke="rgb(0,0,0)" stroke-width="1" opacity="0" d="M 0.5 127 Q 16.4 142.6 38.5 152 L 57.5 159 L 76.5 163 L 85 163.5 L 0 164 L 0.5 127 Z " /><path fill="rgb(249,178,34)" stroke="rgb(249,178,34)" stroke-width="1" opacity="0.9921568627450981" d="M 177.5 120 L 193.5 120 L 199 122 L 200 127.5 L 196 142.5 L 186.5 155 Q 182.8 156.3 184 152.5 Q 190.3 143.4 190 129 L 183.5 127 L 176.5 127 L 175.5 128 L 162.5 128 L 165.5 124 L 177.5 120 Z " /><path fill="rgb(249,178,34)" stroke="rgb(249,178,34)" stroke-width="1" opacity="0.9921568627450981" d="M 1 124 L 4.5 124 L 30.5 137 L 62.5 146 L 67.5 146 L 73.5 148 L 82.5 148 L 83.5 149 L 120.5 149 L 149.5 144 L 177.5 134 L 180.5 134 L 182 137.5 L 172.5 145 L 160.5 151 L 140.5 158 L 114.5 163 L 85.5 163 L 84.5 162 L 76.5 162 L 61.5 159 L 38.5 151 Q 17.1 141.4 1 126.5 L 1 124 Z " /><path fill="rgb(56,53,54)" stroke="rgb(56,53,54)" stroke-width="1" opacity="0.6941176470588235" d="M 91.5 0 L 92 2 L 87 1.5 L 91.5 0 Z " /><path fill="rgb(56,53,54)" stroke="rgb(56,53,54)" stroke-width="1" opacity="0.6941176470588235" d="M 94.5 0 L 112 0.5 L 94.5 1 L 94.5 0 Z " /><path fill="rgb(56,53,54)" stroke="rgb(56,53,54)" stroke-width="1" opacity="0.6941176470588235" d="M 114.5 0 L 119 1.5 L 114 2 L 114.5 0 Z " /><path fill="rgb(56,53,54)" stroke="rgb(56,53,54)" stroke-width="1" opacity="0.6941176470588235" d="M 83.5 2 L 86 2.5 L 83.5 3 L 83.5 2 Z " /><path fill="rgb(56,53,54)" stroke="rgb(56,53,54)" stroke-width="1" opacity="0.6941176470588235" d="M 75.5 5 L 77 5.5 L 70.5 9 L 71.5 7 L 75.5 5 Z " /><path fill="rgb(56,53,54)" stroke="rgb(56,53,54)" stroke-width="1" opacity="0.6941176470588235" d="M 128.5 5 L 133 7.5 L 131.5 7 Q 127.7 6.7 128.5 5 Z " /><path fill="rgb(56,53,54)" stroke="rgb(56,53,54)" stroke-width="1" opacity="0.6941176470588235" d="M 134.5 8 L 141.5 16 L 134.5 8 Z " /><path fill="rgb(56,53,54)" stroke="rgb(56,53,54)" stroke-width="1" opacity="0.6941176470588235" d="M 68.5 9 L 65.5 13 L 64 12.5 L 68.5 9 Z " /><path fill="rgb(56,53,54)" stroke="rgb(56,53,54)" stroke-width="1" opacity="0.6941176470588235" d="M 63.5 14 L 60 18.5 L 58.5 21 L 59 19.5 L 63.5 14 Z " /><path fill="rgb(56,53,54)" stroke="rgb(56,53,54)" stroke-width="1" opacity="0.6941176470588235" d="M 142.5 17 L 144 19.5 L 143 19.5 L 142.5 17 Z " /><path fill="rgb(56,53,54)" stroke="rgb(56,53,54)" stroke-width="1" opacity="0.6941176470588235" d="M 94.5 23 L 98 23.5 L 94.5 24 L 94.5 23 Z " /><path fill="rgb(56,53,54)" stroke="rgb(56,53,54)" stroke-width="1" opacity="0.6941176470588235" d="M 103.5 23 L 106 23.5 L 103.5 24 L 103.5 23 Z " /><path fill="rgb(56,53,54)" stroke="rgb(56,53,54)" stroke-width="1" opacity="0.6941176470588235" d="M 91.5 24 L 93 24.5 L 90.5 26 L 91.5 24 Z " /><path fill="rgb(56,53,54)" stroke="rgb(56,53,54)" stroke-width="1" opacity="0.6941176470588235" d="M 107.5 24 L 110 25.5 L 108.5 25 L 107.5 24 Z " /><path fill="rgb(56,53,54)" stroke="rgb(56,53,54)" stroke-width="1" opacity="0.6941176470588235" d="M 88.5 26 L 85 30.5 L 83.5 34 L 83 32.5 L 88.5 26 Z " /><path fill="rgb(56,53,54)" stroke="rgb(56,53,54)" stroke-width="1" opacity="0.6941176470588235" d="M 112.5 27 L 114 29.5 L 112 28.5 L 112.5 27 Z " /><path fill="rgb(56,53,54)" stroke="rgb(56,53,54)" stroke-width="1" opacity="0.6941176470588235" d="M 146.5 28 L 147 33.5 L 146 33.5 L 146.5 28 Z " /><path fill="rgb(56,53,54)" stroke="rgb(56,53,54)" stroke-width="1" opacity="0.6941176470588235" d="M 54.5 29 L 55 31.5 L 54 31.5 L 54.5 29 Z " /><path fill="rgb(56,53,54)" stroke="rgb(56,53,54)" stroke-width="1" opacity="0.6941176470588235" d="M 115.5 34 L 116 37.5 L 115 37.5 L 115.5 34 Z " /><path fill="rgb(56,53,54)" stroke="rgb(56,53,54)" stroke-width="1" opacity="0.6941176470588235" d="M 62.5 38 L 68 38.5 L 62.5 39 L 62.5 38 Z " /><path fill="rgb(56,53,54)" stroke="rgb(56,53,54)" stroke-width="1" opacity="0.6941176470588235" d="M 81.5 38 L 80.5 40 L 81.5 38 Z " /><path fill="rgb(56,53,54)" stroke="rgb(56,53,54)" stroke-width="1" opacity="0.6941176470588235" d="M 71.5 39 L 77 39.5 L 71.5 40 L 71.5 39 Z " /><path fill="rgb(56,53,54)" stroke="rgb(56,53,54)" stroke-width="1" opacity="0.6941176470588235" d="M 111.5 47 L 115 47.5 L 111.5 48 L 111.5 47 Z " /><path fill="rgb(56,53,54)" stroke="rgb(56,53,54)" stroke-width="1" opacity="0.6941176470588235" d="M 101.5 48 L 107 48.5 L 101.5 49 L 101.5 48 Z " /><path fill="rgb(56,53,54)" stroke="rgb(56,53,54)" stroke-width="1" opacity="0.6941176470588235" d="M 92.5 49 L 98 49.5 L 92.5 50 L 92.5 49 Z " /><path fill="rgb(56,53,54)" stroke="rgb(56,53,54)" stroke-width="1" opacity="0.6941176470588235" d="M 87.5 50 L 91 50.5 L 87.5 51 L 87.5 50 Z " /><path fill="rgb(56,53,54)" stroke="rgb(56,53,54)" stroke-width="1" opacity="0.6941176470588235" d="M 73.5 54 L 75 54.5 L 68.5 58 L 69.5 56 L 73.5 54 Z " /><path fill="rgb(56,53,54)" stroke="rgb(56,53,54)" stroke-width="1" opacity="0.6941176470588235" d="M 66.5 58 L 65.5 60 L 66.5 58 Z " /><path fill="rgb(56,53,54)" stroke="rgb(56,53,54)" stroke-width="1" opacity="0.6941176470588235" d="M 63.5 60 L 57.5 67 L 63.5 60 Z " /><path fill="rgb(56,53,54)" stroke="rgb(56,53,54)" stroke-width="1" opacity="0.6941176470588235" d="M 108.5 64 L 116 64.5 L 108.5 65 L 108.5 64 Z " /><path fill="rgb(56,53,54)" stroke="rgb(56,53,54)" stroke-width="1" opacity="0.6941176470588235" d="M 101.5 65 L 105 65.5 L 101.5 66 L 101.5 65 Z " /><path fill="rgb(56,53,54)" stroke="rgb(56,53,54)" stroke-width="1" opacity="0.6941176470588235" d="M 97.5 66 L 100 66.5 L 97.5 67 L 97.5 66 Z " /><path fill="rgb(56,53,54)" stroke="rgb(56,53,54)" stroke-width="1" opacity="0.6941176470588235" d="M 94.5 67 L 96 67.5 L 91.5 70 L 92.5 68 L 94.5 67 Z " /><path fill="rgb(56,53,54)" stroke="rgb(56,53,54)" stroke-width="1" opacity="0.6941176470588235" d="M 56.5 68 L 55.5 70 L 56.5 68 Z " /><path fill="rgb(56,53,54)" stroke="rgb(56,53,54)" stroke-width="1" opacity="0.6941176470588235" d="M 89.5 70 L 86 74.5 L 84.5 77 L 85 75.5 L 89.5 70 Z " /><path fill="rgb(56,53,54)" stroke="rgb(56,53,54)" stroke-width="1" opacity="0.6941176470588235" d="M 115.5 75 L 116 81.5 L 115 81.5 L 115.5 75 Z " /><path fill="rgb(56,53,54)" stroke="rgb(56,53,54)" stroke-width="1" opacity="0.6941176470588235" d="M 51.5 78 L 52 80.5 L 51 80.5 L 51.5 78 Z " /><path fill="rgb(56,53,54)" stroke="rgb(56,53,54)" stroke-width="1" opacity="0.6941176470588235" d="M 50.5 83 L 51 97.5 L 50 97.5 L 50.5 83 Z " /><path fill="rgb(56,53,54)" stroke="rgb(56,53,54)" stroke-width="1" opacity="0.6941176470588235" d="M 147.5 85 L 148 88.5 L 147 88.5 L 147.5 85 Z " /><path fill="rgb(56,53,54)" stroke="rgb(56,53,54)" stroke-width="1" opacity="0.6941176470588235" d="M 111.5 92 L 110.5 94 L 111.5 92 Z " /><path fill="rgb(56,53,54)" stroke="rgb(56,53,54)" stroke-width="1" opacity="0.6941176470588235" d="M 84.5 95 L 85.5 97 L 84.5 95 Z " /><path fill="rgb(56,53,54)" stroke="rgb(56,53,54)" stroke-width="1" opacity="0.6941176470588235" d="M 109.5 95 L 106.5 99 L 109.5 95 Z " /><path fill="rgb(56,53,54)" stroke="rgb(56,53,54)" stroke-width="1" opacity="0.6941176470588235" d="M 150.5 95 L 155 100.5 L 152 98.5 L 150.5 95 Z " /><path fill="rgb(56,53,54)" stroke="rgb(56,53,54)" stroke-width="1" opacity="0.6941176470588235" d="M 86.5 98 L 90 100.5 L 88.5 100 L 86.5 98 Z " /><path fill="rgb(56,53,54)" stroke="rgb(56,53,54)" stroke-width="1" opacity="0.6941176470588235" d="M 50.5 99 L 53 104.5 L 52 104.5 L 50.5 99 Z " /><path fill="rgb(56,53,54)" stroke="rgb(56,53,54)" stroke-width="1" opacity="0.6941176470588235" d="M 104.5 99 L 103.5 101 L 102 100.5 L 104.5 99 Z " /><path fill="rgb(56,53,54)" stroke="rgb(56,53,54)" stroke-width="1" opacity="0.6941176470588235" d="M 91.5 101 L 95 101.5 L 91.5 102 L 91.5 101 Z " /><path fill="rgb(56,53,54)" stroke="rgb(56,53,54)" stroke-width="1" opacity="0.6941176470588235" d="M 155.5 107 L 153.5 110 L 155.5 107 Z " /><path fill="rgb(56,53,54)" stroke="rgb(56,53,54)" stroke-width="1" opacity="0.6941176470588235" d="M 119.5 108 L 122 109.5 L 120.5 109 L 110.5 117 L 112.5 114 L 119.5 108 Z " /><path fill="rgb(56,53,54)" stroke="rgb(56,53,54)" stroke-width="1" opacity="0.6941176470588235" d="M 55.5 110 L 56.5 112 L 55.5 110 Z " /><path fill="rgb(56,53,54)" stroke="rgb(56,53,54)" stroke-width="1" opacity="0.6941176470588235" d="M 151.5 110 L 147.5 115 L 151.5 110 Z " /><path fill="rgb(56,53,54)" stroke="rgb(56,53,54)" stroke-width="1" opacity="0.6941176470588235" d="M 122.5 111 L 132.5 122 L 134 122.5 L 132.5 123 L 123 113.5 L 122.5 111 Z " /><path fill="rgb(56,53,54)" stroke="rgb(56,53,54)" stroke-width="1" opacity="0.6941176470588235" d="M 57.5 113 L 59.5 116 L 57.5 113 Z " /><path fill="rgb(56,53,54)" stroke="rgb(56,53,54)" stroke-width="1" opacity="0.6941176470588235" d="M 145.5 115 L 140.5 121 L 145.5 115 Z " /><path fill="rgb(56,53,54)" stroke="rgb(56,53,54)" stroke-width="1" opacity="0.6941176470588235" d="M 62.5 117 L 63.5 119 L 62.5 117 Z " /><path fill="rgb(56,53,54)" stroke="rgb(56,53,54)" stroke-width="1" opacity="0.6941176470588235" d="M 108.5 117 L 107.5 119 L 102.5 121 L 102.5 120 L 108.5 117 Z " /><path fill="rgb(56,53,54)" stroke="rgb(56,53,54)" stroke-width="1" opacity="0.6941176470588235" d="M 138.5 121 L 137.5 123 L 138.5 121 Z " /><path fill="rgb(56,53,54)" stroke="rgb(56,53,54)" stroke-width="1" opacity="0.6941176470588235" d="M 72.5 122 L 75 122.5 L 72.5 123 L 72.5 122 Z " /><path fill="rgb(56,53,54)" stroke="rgb(56,53,54)" stroke-width="1" opacity="0.6941176470588235" d="M 95.5 122 L 98 122.5 L 95.5 123 L 95.5 122 Z " /><path fill="rgb(56,53,54)" stroke="rgb(56,53,54)" stroke-width="1" opacity="0.6941176470588235" d="M 76.5 123 L 93 123.5 L 76.5 124 L 76.5 123 Z " /><path fill="rgb(46,40,42)" stroke="rgb(46,40,42)" stroke-width="1" opacity="0.996078431372549" d="M 92.5 1 L 94.5 1 L 110.5 1 L 111.5 2 L 113.5 1 L 117.5 3 L 119.5 2 L 133.5 8 L 142 16.5 L 143 18.5 L 142.5 20 Q 145.9 19.1 144 24.5 Q 147.5 26 145 27.5 L 147 34.5 L 147 88.5 L 148 89.5 Q 145.5 91 149 92.5 L 150 97 Q 152.7 95.9 152 98.5 Q 155.7 100.3 156 105.5 L 152.5 110 L 148 112 L 146.5 115 L 141 118.5 L 139.5 121 L 134.5 123 L 132 122 Q 133.1 119.3 130.5 120 L 125.5 114 L 124 113.5 L 124.5 112 L 122 110.5 L 120.5 108 L 114 112.5 Q 114.8 114.8 112.5 114 L 110 115 Q 111.1 117.7 108.5 117 L 101.5 121 L 99.5 121 L 94.5 123 L 75.5 123 L 69.5 120 L 67.5 120 Q 65.3 120.8 66 118.5 L 64 118.5 L 64 117 L 61 117 Q 62.1 114.3 59.5 115 L 55 109.5 L 56 108.5 L 53 105.5 L 52 102.5 Q 54.5 101 51 99.5 L 51 84.5 L 52 82.5 Q 49.5 81 53 79.5 L 52 77.5 L 54 72 L 56 71.5 Q 53.5 70 57 68.5 L 59.5 65 L 64 61.5 Q 63.3 59.3 65.5 60 L 78.5 53 L 79.5 54 L 83.5 52 L 92.5 50 L 94.5 51 L 100.5 49 L 102.5 49 L 108.5 48 L 112.5 49 L 117 47 L 117 36.5 L 113 27 L 106.5 23 L 97.5 22 L 93.5 24 L 92.5 23 L 89.5 26 L 85 28.5 L 82 33.5 Q 84.5 35 81 36.5 L 80 40 L 73.5 38 L 71.5 39 L 69.5 38 L 67.5 38 Q 61.2 39.8 59.5 37 L 57.5 37 L 54 35.5 L 56 29.5 Q 53.5 28 57 26.5 L 58 21.5 L 64 13 L 69 10.5 Q 68.2 7.9 71.5 9 L 75.5 6 L 86.5 2 L 88.5 3 L 92.5 1 Z M 105 64 Q 103 66 99 65 Q 97 68 96 66 L 93 68 L 87 72 L 83 78 L 83 86 L 82 87 Q 85 88 83 95 L 86 99 L 90 102 L 91 101 Q 92 104 99 102 L 100 103 L 104 101 Q 106 102 105 99 L 110 96 Q 109 93 112 94 L 112 91 L 114 91 L 113 90 L 117 77 L 117 66 L 116 64 Q 109 62 108 65 L 105 64 Z " /><path fill="rgb(39,35,36)" stroke="rgb(39,35,36)" stroke-width="1" opacity="0.9764705882352941" d="M 68.5 10 L 67.5 12 L 68.5 10 Z " /><path fill="rgb(39,35,36)" stroke="rgb(39,35,36)" stroke-width="1" opacity="0.9764705882352941" d="M 97.5 22 L 104 22.5 L 97.5 23 L 97.5 22 Z " /><path fill="rgb(39,35,36)" stroke="rgb(39,35,36)" stroke-width="1" opacity="0.9764705882352941" d="M 86.5 27 L 85.5 29 L 86.5 27 Z " /><path fill="rgb(39,35,36)" stroke="rgb(39,35,36)" stroke-width="1" opacity="0.9764705882352941" d="M 54.5 32 L 55 34.5 L 54 34.5 L 54.5 32 Z " /><path fill="rgb(39,35,36)" stroke="rgb(39,35,36)" stroke-width="1" opacity="0.9764705882352941" d="M 81.5 36 L 82 37.5 L 80 38.5 L 81.5 36 Z " /><path fill="rgb(39,35,36)" stroke="rgb(39,35,36)" stroke-width="1" opacity="0.9764705882352941" d="M 116.5 36 L 117 46.5 L 116 46.5 L 116.5 36 Z " /><path fill="rgb(39,35,36)" stroke="rgb(39,35,36)" stroke-width="1" opacity="0.9764705882352941" d="M 109.5 48 L 113 48.5 L 109.5 49 L 109.5 48 Z " /><path fill="rgb(39,35,36)" stroke="rgb(39,35,36)" stroke-width="1" opacity="0.9764705882352941" d="M 63.5 61 L 60.5 65 L 63.5 61 Z " /><path fill="rgb(39,35,36)" stroke="rgb(39,35,36)" stroke-width="1" opacity="0.9764705882352941" d="M 98.5 65 L 101 65.5 L 98.5 66 L 98.5 65 Z " /><path fill="rgb(39,35,36)" stroke="rgb(39,35,36)" stroke-width="1" opacity="0.9764705882352941" d="M 116.5 65 L 117 76.5 L 116 76.5 L 116.5 65 Z " /><path fill="rgb(39,35,36)" stroke="rgb(39,35,36)" stroke-width="1" opacity="0.9764705882352941" d="M 86.5 72 L 85.5 74 L 86.5 72 Z " /><path fill="rgb(39,35,36)" stroke="rgb(39,35,36)" stroke-width="1" opacity="0.9764705882352941" d="M 88.5 100 L 89.5 102 L 88.5 100 Z " /><path fill="rgb(39,35,36)" stroke="rgb(39,35,36)" stroke-width="1" opacity="0.9764705882352941" d="M 155.5 106 L 154.5 108 L 155.5 106 Z " /><path fill="rgb(39,35,36)" stroke="rgb(39,35,36)" stroke-width="1" opacity="0.9764705882352941" d="M 54.5 107 L 55.5 109 L 54.5 107 Z " /><path fill="rgb(39,35,36)" stroke="rgb(39,35,36)" stroke-width="1" opacity="0.9764705882352941" d="M 116.5 110 L 114.5 113 L 116.5 110 Z " /><path fill="rgb(39,35,36)" stroke="rgb(39,35,36)" stroke-width="1" opacity="0.9764705882352941" d="M 125.5 114 L 127.5 117 L 125.5 114 Z " /><path fill="rgb(39,35,36)" stroke="rgb(39,35,36)" stroke-width="1" opacity="0.9764705882352941" d="M 142.5 117 L 141.5 119 L 142.5 117 Z " /><path fill="rgb(205,181,128)" stroke="rgb(205,181,128)" stroke-width="1" opacity="0.24313725490196078" d="M 125.5 3 L 129 4.5 L 127.5 5 L 125.5 3 Z " /><path fill="rgb(205,181,128)" stroke="rgb(205,181,128)" stroke-width="1" opacity="0.24313725490196078" d="M 132.5 6 L 133.5 8 L 132.5 6 Z " /><path fill="rgb(205,181,128)" stroke="rgb(205,181,128)" stroke-width="1" opacity="0.24313725490196078" d="M 70.5 7 L 69.5 9 L 70.5 7 Z " /><path fill="rgb(205,181,128)" stroke="rgb(205,181,128)" stroke-width="1" opacity="0.24313725490196078" d="M 135.5 8 L 141.5 15 L 135.5 8 Z " /><path fill="rgb(205,181,128)" stroke="rgb(205,181,128)" stroke-width="1" opacity="0.24313725490196078" d="M 67.5 9 L 65.5 12 L 67.5 9 Z " /><path fill="rgb(205,181,128)" stroke="rgb(205,181,128)" stroke-width="1" opacity="0.24313725490196078" d="M 63.5 13 L 60.5 17 L 63.5 13 Z " /><path fill="rgb(205,181,128)" stroke="rgb(205,181,128)" stroke-width="1" opacity="0.24313725490196078" d="M 142.5 16 L 143.5 18 L 142.5 16 Z " /><path fill="rgb(205,181,128)" stroke="rgb(205,181,128)" stroke-width="1" opacity="0.24313725490196078" d="M 57.5 21 L 57 22.5 L 56.5 24 L 56 22.5 L 57.5 21 Z " /><path fill="rgb(205,181,128)" stroke="rgb(205,181,128)" stroke-width="1" opacity="0.24313725490196078" d="M 98.5 23 L 103 23.5 L 98.5 24 L 98.5 23 Z " /><path fill="rgb(205,181,128)" stroke="rgb(205,181,128)" stroke-width="1" opacity="0.24313725490196078" d="M 89.5 26 L 85.5 31 L 89.5 26 Z " /><path fill="rgb(205,181,128)" stroke="rgb(205,181,128)" stroke-width="1" opacity="0.24313725490196078" d="M 110.5 26 L 111.5 28 L 110.5 26 Z " /><path fill="rgb(205,181,128)" stroke="rgb(205,181,128)" stroke-width="1" opacity="0.24313725490196078" d="M 112.5 29 L 113.5 31 L 112.5 29 Z " /><path fill="rgb(205,181,128)" stroke="rgb(205,181,128)" stroke-width="1" opacity="0.24313725490196078" d="M 147.5 33 L 148 84.5 L 147 84.5 L 147.5 33 Z " /><path fill="rgb(205,181,128)" stroke="rgb(205,181,128)" stroke-width="1" opacity="0.24313725490196078" d="M 82.5 37 L 83 38.5 L 81 39.5 L 82.5 37 Z " /><path fill="rgb(205,181,128)" stroke="rgb(205,181,128)" stroke-width="1" opacity="0.24313725490196078" d="M 58.5 38 L 62 38.5 L 58.5 39 L 58.5 38 Z " /><path fill="rgb(205,181,128)" stroke="rgb(205,181,128)" stroke-width="1" opacity="0.24313725490196078" d="M 115.5 38 L 116 46.5 L 115 46.5 L 115.5 38 Z " /><path fill="rgb(205,181,128)" stroke="rgb(205,181,128)" stroke-width="1" opacity="0.24313725490196078" d="M 67.5 39 L 71 39.5 L 67.5 40 L 67.5 39 Z " /><path fill="rgb(205,181,128)" stroke="rgb(205,181,128)" stroke-width="1" opacity="0.24313725490196078" d="M 75.5 40 L 80 40.5 L 75.5 41 L 75.5 40 Z " /><path fill="rgb(205,181,128)" stroke="rgb(205,181,128)" stroke-width="1" opacity="0.24313725490196078" d="M 104.5 47 L 111 47.5 L 104.5 48 L 104.5 47 Z " /><path fill="rgb(205,181,128)" stroke="rgb(205,181,128)" stroke-width="1" opacity="0.24313725490196078" d="M 96.5 48 L 99 48.5 L 96.5 49 L 96.5 48 Z " /><path fill="rgb(205,181,128)" stroke="rgb(205,181,128)" stroke-width="1" opacity="0.24313725490196078" d="M 89.5 49 L 92 49.5 L 89.5 50 L 89.5 49 Z " /><path fill="rgb(205,181,128)" stroke="rgb(205,181,128)" stroke-width="1" opacity="0.24313725490196078" d="M 68.5 56 L 67.5 58 L 68.5 56 Z " /><path fill="rgb(205,181,128)" stroke="rgb(205,181,128)" stroke-width="1" opacity="0.24313725490196078" d="M 65.5 58 L 64.5 60 L 65.5 58 Z " /><path fill="rgb(205,181,128)" stroke="rgb(205,181,128)" stroke-width="1" opacity="0.24313725490196078" d="M 62.5 60 L 61.5 62 L 62.5 60 Z " /><path fill="rgb(205,181,128)" stroke="rgb(205,181,128)" stroke-width="1" opacity="0.24313725490196078" d="M 59.5 63 L 57.5 66 L 59.5 63 Z " /><path fill="rgb(205,181,128)" stroke="rgb(205,181,128)" stroke-width="1" opacity="0.24313725490196078" d="M 105.5 65 L 108 65.5 L 105.5 66 L 105.5 65 Z " /><path fill="rgb(205,181,128)" stroke="rgb(205,181,128)" stroke-width="1" opacity="0.24313725490196078" d="M 115.5 65 L 116 74.5 L 115 74.5 L 115.5 65 Z " /><path fill="rgb(205,181,128)" stroke="rgb(205,181,128)" stroke-width="1" opacity="0.24313725490196078" d="M 56.5 67 L 55.5 69 L 56.5 67 Z " /><path fill="rgb(205,181,128)" stroke="rgb(205,181,128)" stroke-width="1" opacity="0.24313725490196078" d="M 90.5 70 L 86.5 75 L 90.5 70 Z " /><path fill="rgb(205,181,128)" stroke="rgb(205,181,128)" stroke-width="1" opacity="0.24313725490196078" d="M 85.5 76 L 85 77.5 L 84.5 79 L 84 77.5 L 85.5 76 Z " /><path fill="rgb(205,181,128)" stroke="rgb(205,181,128)" stroke-width="1" opacity="0.24313725490196078" d="M 50.5 79 L 51 82.5 L 50 82.5 L 50.5 79 Z " /><path fill="rgb(205,181,128)" stroke="rgb(205,181,128)" stroke-width="1" opacity="0.24313725490196078" d="M 83.5 80 L 84 91.5 L 83 91.5 L 83.5 80 Z " /><path fill="rgb(205,181,128)" stroke="rgb(205,181,128)" stroke-width="1" opacity="0.24313725490196078" d="M 112.5 88 L 113 89.5 L 110.5 93 L 111 91.5 L 112.5 88 Z " /><path fill="rgb(205,181,128)" stroke="rgb(205,181,128)" stroke-width="1" opacity="0.24313725490196078" d="M 84.5 94 L 85.5 96 L 84.5 94 Z " /><path fill="rgb(205,181,128)" stroke="rgb(205,181,128)" stroke-width="1" opacity="0.24313725490196078" d="M 109.5 94 L 105.5 99 L 109.5 94 Z " /><path fill="rgb(205,181,128)" stroke="rgb(205,181,128)" stroke-width="1" opacity="0.24313725490196078" d="M 150.5 94 L 151.5 96 L 150.5 94 Z " /><path fill="rgb(205,181,128)" stroke="rgb(205,181,128)" stroke-width="1" opacity="0.24313725490196078" d="M 86.5 97 L 87.5 99 L 86.5 97 Z " /><path fill="rgb(205,181,128)" stroke="rgb(205,181,128)" stroke-width="1" opacity="0.24313725490196078" d="M 153.5 98 L 154.5 100 L 153.5 98 Z " /><path fill="rgb(205,181,128)" stroke="rgb(205,181,128)" stroke-width="1" opacity="0.24313725490196078" d="M 155.5 101 L 157 103.5 L 156 103.5 L 155.5 101 Z " /><path fill="rgb(205,181,128)" stroke="rgb(205,181,128)" stroke-width="1" opacity="0.24313725490196078" d="M 156.5 106 L 157 107.5 L 154 109.5 L 156.5 106 Z " /><path fill="rgb(205,181,128)" stroke="rgb(205,181,128)" stroke-width="1" opacity="0.24313725490196078" d="M 53.5 107 L 55 109.5 L 53 108.5 L 53.5 107 Z " /><path fill="rgb(205,181,128)" stroke="rgb(205,181,128)" stroke-width="1" opacity="0.24313725490196078" d="M 119.5 109 L 122 110.5 L 120.5 110 L 115.5 114 L 119.5 109 Z " /><path fill="rgb(205,181,128)" stroke="rgb(205,181,128)" stroke-width="1" opacity="0.24313725490196078" d="M 152.5 110 L 148.5 115 L 152.5 110 Z " /><path fill="rgb(205,181,128)" stroke="rgb(205,181,128)" stroke-width="1" opacity="0.24313725490196078" d="M 55.5 111 L 56.5 113 L 55.5 111 Z " /><path fill="rgb(205,181,128)" stroke="rgb(205,181,128)" stroke-width="1" opacity="0.24313725490196078" d="M 112.5 115 L 111.5 117 L 112.5 115 Z " /><path fill="rgb(205,181,128)" stroke="rgb(205,181,128)" stroke-width="1" opacity="0.24313725490196078" d="M 124.5 115 L 130.5 122 L 124.5 115 Z " /><path fill="rgb(205,181,128)" stroke="rgb(205,181,128)" stroke-width="1" opacity="0.24313725490196078" d="M 146.5 115 L 142.5 120 L 146.5 115 Z " /><path fill="rgb(205,181,128)" stroke="rgb(205,181,128)" stroke-width="1" opacity="0.24313725490196078" d="M 60.5 116 L 62.5 119 L 60.5 116 Z " /><path fill="rgb(205,181,128)" stroke="rgb(205,181,128)" stroke-width="1" opacity="0.24313725490196078" d="M 109.5 117 L 108.5 119 L 109.5 117 Z " /><path fill="rgb(205,181,128)" stroke="rgb(205,181,128)" stroke-width="1" opacity="0.24313725490196078" d="M 64.5 119 L 69 121.5 L 67.5 122 L 64.5 119 Z " /><path fill="rgb(205,181,128)" stroke="rgb(205,181,128)" stroke-width="1" opacity="0.24313725490196078" d="M 178.5 119 L 193 119.5 L 178.5 120 L 178.5 119 Z " /><path fill="rgb(205,181,128)" stroke="rgb(205,181,128)" stroke-width="1" opacity="0.24313725490196078" d="M 174.5 120 L 177 120.5 L 174.5 121 L 174.5 120 Z " /><path fill="rgb(205,181,128)" stroke="rgb(205,181,128)" stroke-width="1" opacity="0.24313725490196078" d="M 194.5 120 L 200 122.5 L 199.5 124 L 199 122 L 194.5 121 L 194.5 120 Z " /><path fill="rgb(205,181,128)" stroke="rgb(205,181,128)" stroke-width="1" opacity="0.24313725490196078" d="M 139.5 121 L 138.5 123 L 139.5 121 Z " /><path fill="rgb(205,181,128)" stroke="rgb(205,181,128)" stroke-width="1" opacity="0.24313725490196078" d="M 170.5 121 L 173 121.5 Q 165.4 122.4 162 127.5 L 172 128.5 L 161 129 L 162 125 L 170.5 121 Z " /><path fill="rgb(205,181,128)" stroke="rgb(205,181,128)" stroke-width="1" opacity="0.24313725490196078" d="M 0 123 L 4.5 123 L 18 130.5 L 16.5 131 L 4.5 124 L 1 124 Q 0.3 127.8 3.5 129 Q 22.1 145.4 48 154.5 L 46.5 155 Q 18.8 145.2 0 126.5 L 0 123 Z " /><path fill="rgb(205,181,128)" stroke="rgb(205,181,128)" stroke-width="1" opacity="0.24313725490196078" d="M 134.5 123 L 137 123.5 L 134.5 124 L 134.5 123 Z " /><path fill="rgb(205,181,128)" stroke="rgb(205,181,128)" stroke-width="1" opacity="0.24313725490196078" d="M 81.5 124 L 86 124.5 L 81.5 125 L 81.5 124 Z " /><path fill="rgb(205,181,128)" stroke="rgb(205,181,128)" stroke-width="1" opacity="0.24313725490196078" d="M 176.5 127 L 184 127.5 L 176.5 128 L 176.5 127 Z " /><path fill="rgb(205,181,128)" stroke="rgb(205,181,128)" stroke-width="1" opacity="0.24313725490196078" d="M 185.5 128 L 190 129 L 189.5 137 L 189 130.5 L 187.5 129 Q 184.5 129.5 185.5 128 Z " /><path fill="rgb(205,181,128)" stroke="rgb(205,181,128)" stroke-width="1" opacity="0.24313725490196078" d="M 199.5 128 L 200 133.5 L 196.5 142 L 196 140.5 Q 199.5 136 199.5 128 Z " /><path fill="rgb(205,181,128)" stroke="rgb(205,181,128)" stroke-width="1" opacity="0.24313725490196078" d="M 19.5 131 Q 32.6 137.9 49 141.5 L 46.5 142 L 30.5 137 L 19.5 132 L 19.5 131 Z " /><path fill="rgb(205,181,128)" stroke="rgb(205,181,128)" stroke-width="1" opacity="0.24313725490196078" d="M 177.5 133 Q 182.3 132.3 183 135.5 L 180.5 141 L 173.5 145 L 174.5 143 L 182 137.5 L 180.5 134 L 170.5 137 L 170.5 136 L 177.5 133 Z " /><path fill="rgb(205,181,128)" stroke="rgb(205,181,128)" stroke-width="1" opacity="0.24313725490196078" d="M 166.5 137 L 169 137.5 L 149.5 144 L 137.5 146 L 137.5 145 L 149.5 143 L 166.5 137 Z " /><path fill="rgb(205,181,128)" stroke="rgb(205,181,128)" stroke-width="1" opacity="0.24313725490196078" d="M 188.5 138 L 189 140.5 L 188 140.5 L 188.5 138 Z " /><path fill="rgb(205,181,128)" stroke="rgb(205,181,128)" stroke-width="1" opacity="0.24313725490196078" d="M 50.5 142 L 66 145.5 L 62.5 146 L 50.5 143 L 50.5 142 Z " /><path fill="rgb(205,181,128)" stroke="rgb(205,181,128)" stroke-width="1" opacity="0.24313725490196078" d="M 187.5 142 L 188 143.5 L 184 155 L 186.5 155 L 191 150.5 L 195.5 143 L 195 144.5 Q 192.9 152.4 186.5 156 Q 181.3 157.8 183 152.5 L 187.5 142 Z " /><path fill="rgb(205,181,128)" stroke="rgb(205,181,128)" stroke-width="1" opacity="0.24313725490196078" d="M 171.5 145 L 170.5 147 L 148.5 156 L 148.5 155 L 160.5 151 L 171.5 145 Z " /><path fill="rgb(205,181,128)" stroke="rgb(205,181,128)" stroke-width="1" opacity="0.24313725490196078" d="M 68.5 146 L 72 146.5 L 68.5 147 L 68.5 146 Z " /><path fill="rgb(205,181,128)" stroke="rgb(205,181,128)" stroke-width="1" opacity="0.24313725490196078" d="M 131.5 146 L 136 146.5 L 131.5 147 L 131.5 146 Z " /><path fill="rgb(205,181,128)" stroke="rgb(205,181,128)" stroke-width="1" opacity="0.24313725490196078" d="M 73.5 147 L 80 147.5 L 73.5 148 L 73.5 147 Z " /><path fill="rgb(205,181,128)" stroke="rgb(205,181,128)" stroke-width="1" opacity="0.24313725490196078" d="M 123.5 147 L 130 147.5 L 123.5 148 L 123.5 147 Z " /><path fill="rgb(205,181,128)" stroke="rgb(205,181,128)" stroke-width="1" opacity="0.24313725490196078" d="M 83.5 148 L 96 148.5 L 83.5 149 L 83.5 148 Z " /><path fill="rgb(205,181,128)" stroke="rgb(205,181,128)" stroke-width="1" opacity="0.24313725490196078" d="M 107.5 148 L 121 148.5 L 107.5 149 L 107.5 148 Z " /><path fill="rgb(205,181,128)" stroke="rgb(205,181,128)" stroke-width="1" opacity="0.24313725490196078" d="M 49.5 155 L 61 158.5 L 57.5 159 L 49.5 156 L 49.5 155 Z " /><path fill="rgb(205,181,128)" stroke="rgb(205,181,128)" stroke-width="1" opacity="0.24313725490196078" d="M 144.5 156 L 147 156.5 L 133.5 160 L 133.5 159 Q 140.5 159 144.5 156 Z " /><path fill="rgb(205,181,128)" stroke="rgb(205,181,128)" stroke-width="1" opacity="0.24313725490196078" d="M 62.5 159 L 65 159.5 L 62.5 160 L 62.5 159 Z " /><path fill="rgb(205,181,128)" stroke="rgb(205,181,128)" stroke-width="1" opacity="0.24313725490196078" d="M 66.5 160 L 76.5 162 L 84.5 162 L 85.5 163 L 114 163.5 L 85.5 164 L 84.5 163 L 70.5 162 L 66.5 161 L 66.5 160 Z " /><path fill="rgb(205,181,128)" stroke="rgb(205,181,128)" stroke-width="1" opacity="0.24313725490196078" d="M 128.5 160 L 132 160.5 L 122.5 163 L 115.5 163 L 115.5 162 Q 123.9 162.9 128.5 160 Z " /></svg>